<?xml version="1.0" encoding="utf-8"?>
<!-- Generator: Adobe Illustrator 18.0.0, SVG Export Plug-In . SVG Version: 6.00 Build 0)  -->
<!DOCTYPE svg PUBLIC "-//W3C//DTD SVG 1.1//EN" "http://www.w3.org/Graphics/SVG/1.1/DTD/svg11.dtd">
<svg version="1.1" id="Layer_1" xmlns="http://www.w3.org/2000/svg" xmlns:xlink="http://www.w3.org/1999/xlink" x="0px" y="0px"
	 viewBox="0 249.1 595.3 344.4" enable-background="new 0 249.1 595.3 344.4" xml:space="preserve">
<g>
	<g>
		<g>
			<path fill="#00958f" d="M93,327.1c-35.2,0-63.5,11.1-78.3,19.1v29.4c14.5-8,46.9-20.9,71.7-20.9c32.8,0,56.4,11.4,56.6,51v20.4
				C60.5,426.3-0.1,445,0.1,513.3c0.2,46.8,31,80.7,97.6,80.5c35.5,0,65.6-7.2,85-18.3l-0.2-165.1C182.4,347.5,140.4,327,93,327.1z
				 M143.2,560.7c-10.4,5.8-26,8.7-42.1,8.7C63,569.6,40.2,549.3,40,512.2c-0.2-52.1,38.4-61.6,103-61.7L143.2,560.7z"/>
			<path fill="#00958f" d="M541.5,565.4c-32.8,0-59-11.3-59-51L482,249.1l-39.5,13.8l0.2,68.3h-29.4v26.4h29.4l0.2,152.2
				c0.2,62.9,42.1,83.4,89.5,83.3c23.1,0,43.2-4.8,62.9-12.2v-29.9C576.2,559.3,557.7,565.4,541.5,565.4z"/>
			<path fill="#00958f" d="M306.5,326.8c-35.2,0.2-63.5,11.1-78.3,19.1v29.4c14.5-8,46.9-20.9,71.7-20.9c32.8,0,56.6,11.4,56.7,51
				v20.4c-82.8,0.2-143.2,18.8-143.1,87.1c0.2,46.8,31,80.7,97.6,80.5c35.7,0,65.6-7.2,85.2-18.3L396.1,410
				C396,347.2,354.1,326.6,306.5,326.8z M356.8,560.4c-10.4,5.8-26.2,8.7-42.4,8.7c-38.1,0.2-60.9-20.1-60.9-57.2
				c-0.2-52.1,38.4-61.6,103-61.7L356.8,560.4z"/>
		</g>
		<g>
			<polygon fill="#00958f" points="498.1,331.1 498.1,357.5 595.2,357.5 595,331 			"/>
			<polygon fill="#00958f" points="498.3,401.6 595.2,401.4 595.2,374.9 498.3,375 			"/>
		</g>
	</g>
</g>
</svg>
